<svg width="874" height="920" viewBox="0 0 874 920" fill="none" xmlns="http://www.w3.org/2000/svg">
<circle cx="437" cy="460" r="436.5" fill="#094770" stroke="#0F5C98"/>
<path d="M201.226 394.429C6.95967 170.374 120.282 38.7869 201.226 1C161.125 19.7201 83.1514 87.6876 263.605 301.073C600.628 699.598 277.715 857.504 40.8226 919L23 770.075C163.353 738.215 395.493 618.483 201.226 394.429Z" fill="white" stroke="white"/>
<path d="M280.226 394.429C85.9597 170.374 199.282 38.7869 280.226 1C240.125 19.7201 162.151 87.6876 342.605 301.073C679.628 699.598 356.715 857.504 119.823 919L102 770.075C242.353 738.215 474.493 618.483 280.226 394.429Z" fill="url(#paint0_linear)" stroke="white"/>
<path d="M464.296 589.88C454.888 589.88 446.44 587.576 438.952 582.968C431.56 578.36 425.752 572.12 421.528 564.248C417.4 556.28 415.336 547.544 415.336 538.04C415.336 528.92 417.16 520.664 420.808 513.272C424.456 505.784 429.64 499.88 436.36 495.56C443.176 491.24 451.048 489.08 459.976 489.08C468.232 489.08 475.336 490.184 481.288 492.392C487.336 494.504 491.752 497.24 494.536 500.6C496.072 502.52 497.032 505.064 497.416 508.232C497.896 511.4 498.136 515.336 498.136 520.04H495.256C493.432 511.592 489.976 505.304 484.888 501.176C479.8 496.952 472.936 494.84 464.296 494.84C456.52 494.84 450.04 496.904 444.856 501.032C439.672 505.064 435.832 510.344 433.336 516.872C430.936 523.4 429.736 530.456 429.736 538.04C429.736 554.264 432.904 566.024 439.24 573.32C445.576 580.52 453.928 584.12 464.296 584.12C469.192 584.12 473.368 583.688 476.824 582.824C480.28 581.96 483.544 580.712 486.616 579.08V554.024C486.616 550.76 487.144 547.928 488.2 545.528C489.256 543.128 491.512 541.16 494.968 539.624C498.52 537.992 503.656 537.176 510.376 537.176V540.056C506.056 540.056 503.176 541.16 501.736 543.368C500.296 545.576 499.576 549.032 499.576 553.736V580.808C494.392 583.976 488.968 586.28 483.304 587.72C477.64 589.16 471.304 589.88 464.296 589.88ZM524.161 536.6C524.161 531.704 523.489 528.104 522.145 525.8C520.801 523.4 518.113 522.2 514.081 522.2H512.641V519.32H524.161C527.809 519.32 530.545 519.848 532.369 520.904C534.289 521.864 535.633 523.496 536.401 525.8H537.121C538.849 523.592 541.153 521.72 544.033 520.184C547.009 518.648 550.465 517.88 554.401 517.88C558.241 517.88 561.121 518.6 563.041 520.04C564.673 521.288 566.353 523.448 568.081 526.52L562.321 530.84C561.265 529.4 559.729 528.344 557.713 527.672C555.697 526.904 553.393 526.52 550.801 526.52C547.921 526.52 545.281 527.192 542.881 528.536C540.481 529.784 538.561 531.512 537.121 533.72V587H524.161V536.6ZM605.329 588.44C598.801 588.44 593.281 586.904 588.769 583.832C584.257 580.664 580.849 576.44 578.545 571.16C576.241 565.784 575.089 559.784 575.089 553.16C575.089 546.632 576.241 540.68 578.545 535.304C580.849 529.928 584.161 525.704 588.481 522.632C592.897 519.464 598.033 517.88 603.889 517.88C613.585 517.88 620.785 520.616 625.489 526.088C630.289 531.464 632.689 539.288 632.689 549.56L632.401 555.32H588.769C588.769 563.384 590.497 569.96 593.953 575.048C597.409 580.136 602.161 582.68 608.209 582.68C612.721 582.68 616.513 581.72 619.585 579.8C622.753 577.88 625.681 575 628.369 571.16L631.249 573.32C628.081 578.6 624.385 582.44 620.161 584.84C615.937 587.24 610.993 588.44 605.329 588.44ZM619.009 549.56C619.009 541.112 617.761 534.68 615.265 530.264C612.769 525.848 608.977 523.64 603.889 523.64C601.009 523.64 598.417 524.792 596.113 527.096C593.809 529.304 591.985 532.376 590.641 536.312C589.393 540.248 588.769 544.664 588.769 549.56H619.009ZM675.642 588.44C669.114 588.44 663.594 586.904 659.082 583.832C654.57 580.664 651.162 576.44 648.858 571.16C646.554 565.784 645.402 559.784 645.402 553.16C645.402 546.632 646.554 540.68 648.858 535.304C651.162 529.928 654.474 525.704 658.794 522.632C663.21 519.464 668.346 517.88 674.202 517.88C683.898 517.88 691.098 520.616 695.802 526.088C700.602 531.464 703.002 539.288 703.002 549.56L702.714 555.32H659.082C659.082 563.384 660.81 569.96 664.266 575.048C667.722 580.136 672.474 582.68 678.522 582.68C683.034 582.68 686.826 581.72 689.898 579.8C693.066 577.88 695.994 575 698.682 571.16L701.562 573.32C698.394 578.6 694.698 582.44 690.474 584.84C686.25 587.24 681.306 588.44 675.642 588.44ZM689.322 549.56C689.322 541.112 688.074 534.68 685.578 530.264C683.082 525.848 679.29 523.64 674.202 523.64C671.322 523.64 668.73 524.792 666.426 527.096C664.122 529.304 662.298 532.376 660.954 536.312C659.706 540.248 659.082 544.664 659.082 549.56H689.322ZM747.394 588.44C740.482 588.44 734.626 586.904 729.826 583.832C725.122 580.664 721.57 576.44 719.17 571.16C716.866 565.784 715.714 559.784 715.714 553.16C715.714 546.536 716.866 540.584 719.17 535.304C721.57 529.928 725.122 525.704 729.826 522.632C734.626 519.464 740.482 517.88 747.394 517.88C757.954 517.88 764.914 519.56 768.274 522.92C769.906 524.552 770.914 526.568 771.298 528.968C771.682 531.272 771.874 535.496 771.874 541.64H768.994C768.61 535.688 766.738 531.224 763.378 528.248C760.018 525.176 755.65 523.64 750.274 523.64C743.362 523.64 738.13 526.376 734.578 531.848C731.122 537.32 729.394 544.424 729.394 553.16C729.394 561.896 731.122 569 734.578 574.472C738.13 579.944 743.362 582.68 750.274 582.68C755.17 582.68 759.202 581.768 762.37 579.944C765.538 578.024 768.466 575.096 771.154 571.16L774.034 573.32C770.866 578.696 767.122 582.584 762.802 584.984C758.482 587.288 753.346 588.44 747.394 588.44ZM815.564 588.44C809.036 588.44 803.516 586.904 799.004 583.832C794.492 580.664 791.084 576.44 788.78 571.16C786.476 565.784 785.324 559.784 785.324 553.16C785.324 546.632 786.476 540.68 788.78 535.304C791.084 529.928 794.396 525.704 798.716 522.632C803.132 519.464 808.268 517.88 814.124 517.88C823.82 517.88 831.02 520.616 835.724 526.088C840.524 531.464 842.924 539.288 842.924 549.56L842.636 555.32H799.004C799.004 563.384 800.732 569.96 804.188 575.048C807.644 580.136 812.396 582.68 818.444 582.68C822.956 582.68 826.748 581.72 829.82 579.8C832.988 577.88 835.916 575 838.604 571.16L841.484 573.32C838.316 578.6 834.62 582.44 830.396 584.84C826.172 587.24 821.228 588.44 815.564 588.44ZM829.244 549.56C829.244 541.112 827.996 534.68 825.5 530.264C823.004 525.848 819.212 523.64 814.124 523.64C811.244 523.64 808.652 524.792 806.348 527.096C804.044 529.304 802.22 532.376 800.876 536.312C799.628 540.248 799.004 544.664 799.004 549.56H829.244Z" fill="white"/>
<path d="M438.952 582.968L438.423 583.817L438.428 583.82L438.952 582.968ZM421.528 564.248L420.64 564.708L420.643 564.714L420.647 564.721L421.528 564.248ZM420.808 513.272L421.705 513.715L421.707 513.71L420.808 513.272ZM436.36 495.56L435.825 494.715L435.819 494.719L436.36 495.56ZM481.288 492.392L480.94 493.33L480.949 493.333L480.958 493.336L481.288 492.392ZM494.536 500.6L495.317 499.975L495.312 499.969L495.306 499.962L494.536 500.6ZM497.416 508.232L496.423 508.352L496.425 508.367L496.427 508.382L497.416 508.232ZM498.136 520.04V521.04H499.136V520.04H498.136ZM495.256 520.04L494.279 520.251L494.449 521.04H495.256V520.04ZM484.888 501.176L484.249 501.945L484.258 501.953L484.888 501.176ZM444.856 501.032L445.47 501.821L445.479 501.814L444.856 501.032ZM433.336 516.872L432.402 516.515L432.397 516.527L433.336 516.872ZM439.24 573.32L438.485 573.976L438.489 573.981L439.24 573.32ZM476.824 582.824L476.581 581.854L476.581 581.854L476.824 582.824ZM486.616 579.08L487.085 579.963L487.616 579.681V579.08H486.616ZM488.2 545.528L487.285 545.125L487.285 545.125L488.2 545.528ZM494.968 539.624L495.374 540.538L495.386 540.533L494.968 539.624ZM510.376 537.176H511.376V536.176H510.376V537.176ZM510.376 540.056V541.056H511.376V540.056H510.376ZM501.736 543.368L502.574 543.914L502.574 543.914L501.736 543.368ZM499.576 580.808L500.097 581.661L500.576 581.369V580.808H499.576ZM464.296 588.88C455.06 588.88 446.795 586.621 439.476 582.116L438.428 583.82C446.085 588.531 454.716 590.88 464.296 590.88V588.88ZM439.481 582.119C432.241 577.606 426.553 571.497 422.409 563.775L420.647 564.721C424.951 572.743 430.879 579.114 438.423 583.817L439.481 582.119ZM422.416 563.788C418.366 555.971 416.336 547.394 416.336 538.04H414.336C414.336 547.694 416.434 556.589 420.64 564.708L422.416 563.788ZM416.336 538.04C416.336 529.057 418.132 520.955 421.705 513.715L419.911 512.829C416.188 520.373 414.336 528.783 414.336 538.04H416.336ZM421.707 513.71C425.278 506.379 430.342 500.618 436.901 496.401L435.819 494.719C428.938 499.142 423.634 505.189 419.909 512.834L421.707 513.71ZM436.895 496.405C443.534 492.197 451.217 490.08 459.976 490.08V488.08C450.879 488.08 442.818 490.283 435.825 494.715L436.895 496.405ZM459.976 490.08C468.147 490.08 475.127 491.173 480.94 493.33L481.636 491.454C475.545 489.195 468.317 488.08 459.976 488.08V490.08ZM480.958 493.336C486.91 495.414 491.14 498.069 493.766 501.238L495.306 499.962C492.364 496.411 487.762 493.594 481.618 491.448L480.958 493.336ZM493.755 501.225C495.145 502.962 496.055 505.315 496.423 508.352L498.409 508.112C498.009 504.813 496.999 502.078 495.317 499.975L493.755 501.225ZM496.427 508.382C496.897 511.483 497.136 515.365 497.136 520.04H499.136C499.136 515.307 498.895 511.317 498.405 508.082L496.427 508.382ZM498.136 519.04H495.256V521.04H498.136V519.04ZM496.233 519.829C494.377 511.23 490.832 504.711 485.518 500.399L484.258 501.953C489.12 505.897 492.487 511.954 494.279 520.251L496.233 519.829ZM485.527 500.407C480.21 495.993 473.097 493.84 464.296 493.84V495.84C472.775 495.84 479.39 497.911 484.249 501.945L485.527 500.407ZM464.296 493.84C456.335 493.84 449.624 495.957 444.233 500.25L445.479 501.814C450.456 497.851 456.705 495.84 464.296 495.84V493.84ZM444.242 500.243C438.905 504.394 434.959 509.828 432.402 516.515L434.27 517.229C436.705 510.86 440.439 505.734 445.47 501.821L444.242 500.243ZM432.397 516.527C429.953 523.175 428.736 530.349 428.736 538.04H430.736C430.736 530.563 431.919 523.625 434.275 517.217L432.397 516.527ZM428.736 538.04C428.736 554.354 431.914 566.409 438.485 573.976L439.995 572.664C433.894 565.639 430.736 554.174 430.736 538.04H428.736ZM438.489 573.981C445.032 581.415 453.667 585.12 464.296 585.12V583.12C454.189 583.12 446.12 579.625 439.991 572.659L438.489 573.981ZM464.296 585.12C469.246 585.12 473.508 584.684 477.067 583.794L476.581 581.854C473.228 582.692 469.138 583.12 464.296 583.12V585.12ZM477.067 583.794C480.599 582.911 483.94 581.634 487.085 579.963L486.147 578.197C483.148 579.79 479.961 581.009 476.581 581.854L477.067 583.794ZM487.616 579.08V554.024H485.616V579.08H487.616ZM487.616 554.024C487.616 550.866 488.127 548.177 489.115 545.931L487.285 545.125C486.161 547.679 485.616 550.654 485.616 554.024H487.616ZM489.115 545.931C490.035 543.842 492.046 542.017 495.374 540.538L494.562 538.71C490.978 540.303 488.478 542.414 487.285 545.125L489.115 545.931ZM495.386 540.533C498.744 538.989 503.711 538.176 510.376 538.176V536.176C503.601 536.176 498.296 536.995 494.551 538.715L495.386 540.533ZM509.376 537.176V540.056H511.376V537.176H509.376ZM510.376 539.056C505.939 539.056 502.618 540.185 500.898 542.822L502.574 543.914C503.734 542.135 506.173 541.056 510.376 541.056V539.056ZM500.898 542.822C499.298 545.276 498.576 548.97 498.576 553.736H500.576C500.576 549.094 501.294 545.876 502.574 543.914L500.898 542.822ZM498.576 553.736V580.808H500.576V553.736H498.576ZM499.055 579.955C493.953 583.073 488.621 585.336 483.058 586.751L483.55 588.689C489.315 587.224 494.831 584.879 500.097 581.661L499.055 579.955ZM483.058 586.751C477.488 588.167 471.237 588.88 464.296 588.88V590.88C471.371 590.88 477.792 590.153 483.55 588.689L483.058 586.751ZM522.145 525.8L521.272 526.289L521.276 526.296L521.281 526.304L522.145 525.8ZM512.641 522.2H511.641V523.2H512.641V522.2ZM512.641 519.32V518.32H511.641V519.32H512.641ZM532.369 520.904L531.868 521.769L531.894 521.785L531.921 521.798L532.369 520.904ZM536.401 525.8L535.452 526.116L535.68 526.8H536.401V525.8ZM537.121 525.8V526.8H537.608L537.908 526.416L537.121 525.8ZM544.033 520.184L543.574 519.295L543.562 519.302L544.033 520.184ZM563.041 520.04L563.648 519.246L563.641 519.24L563.041 520.04ZM568.081 526.52L568.681 527.32L569.382 526.794L568.952 526.03L568.081 526.52ZM562.321 530.84L561.514 531.431L562.112 532.246L562.921 531.64L562.321 530.84ZM557.713 527.672L557.357 528.606L557.376 528.614L557.396 528.621L557.713 527.672ZM542.881 528.536L543.342 529.423L543.356 529.416L543.369 529.409L542.881 528.536ZM537.121 533.72L536.283 533.174L536.121 533.423V533.72H537.121ZM537.121 587V588H538.121V587H537.121ZM524.161 587H523.161V588H524.161V587ZM525.161 536.6C525.161 531.653 524.489 527.834 523.008 525.296L521.281 526.304C522.488 528.374 523.161 531.755 523.161 536.6H525.161ZM523.017 525.311C521.421 522.461 518.288 521.2 514.081 521.2V523.2C517.937 523.2 520.18 524.339 521.272 526.289L523.017 525.311ZM514.081 521.2H512.641V523.2H514.081V521.2ZM513.641 522.2V519.32H511.641V522.2H513.641ZM512.641 520.32H524.161V518.32H512.641V520.32ZM524.161 520.32C527.745 520.32 530.27 520.845 531.868 521.769L532.87 520.039C530.819 518.851 527.872 518.32 524.161 518.32V520.32ZM531.921 521.798C533.572 522.624 534.756 524.028 535.452 526.116L537.349 525.484C536.509 522.964 535.005 521.104 532.816 520.01L531.921 521.798ZM536.401 526.8H537.121V524.8H536.401V526.8ZM537.908 526.416C539.537 524.335 541.726 522.547 544.503 521.066L543.562 519.302C540.579 520.893 538.16 522.849 536.333 525.184L537.908 526.416ZM544.491 521.073C547.303 519.622 550.596 518.88 554.401 518.88V516.88C550.333 516.88 546.715 517.674 543.574 519.295L544.491 521.073ZM554.401 518.88C558.144 518.88 560.77 519.587 562.441 520.84L563.641 519.24C561.471 517.613 558.337 516.88 554.401 516.88V518.88ZM562.433 520.834C563.907 521.961 565.507 523.984 567.209 527.01L568.952 526.03C567.199 522.912 565.439 520.615 563.648 519.246L562.433 520.834ZM567.481 525.72L561.721 530.04L562.921 531.64L568.681 527.32L567.481 525.72ZM563.127 530.249C561.927 528.612 560.203 527.448 558.029 526.723L557.396 528.621C559.254 529.24 560.603 530.188 561.514 531.431L563.127 530.249ZM558.069 526.738C555.919 525.918 553.49 525.52 550.801 525.52V527.52C553.295 527.52 555.475 527.89 557.357 528.606L558.069 526.738ZM550.801 525.52C547.758 525.52 544.948 526.232 542.392 527.663L543.369 529.409C545.613 528.152 548.083 527.52 550.801 527.52V525.52ZM542.419 527.649C539.871 528.974 537.82 530.818 536.283 533.174L537.958 534.266C539.302 532.206 541.09 530.594 543.342 529.423L542.419 527.649ZM536.121 533.72V587H538.121V533.72H536.121ZM537.121 586H524.161V588H537.121V586ZM525.161 587V536.6H523.161V587H525.161ZM588.769 583.832L588.195 584.65L588.201 584.655L588.207 584.659L588.769 583.832ZM578.545 571.16L577.626 571.554L577.629 571.56L578.545 571.16ZM578.545 535.304L577.626 534.91L577.626 534.91L578.545 535.304ZM588.481 522.632L589.061 523.447L589.064 523.445L588.481 522.632ZM625.489 526.088L624.731 526.74L624.737 526.747L624.743 526.754L625.489 526.088ZM632.689 549.56L633.688 549.61L633.689 549.585V549.56H632.689ZM632.401 555.32V556.32H633.353L633.4 555.37L632.401 555.32ZM588.769 555.32V554.32H587.769V555.32H588.769ZM593.953 575.048L594.781 574.486L594.781 574.486L593.953 575.048ZM619.585 579.8L619.067 578.945L619.055 578.952L619.585 579.8ZM628.369 571.16L628.969 570.36L628.143 569.74L627.55 570.587L628.369 571.16ZM631.249 573.32L632.107 573.834L632.571 573.061L631.849 572.52L631.249 573.32ZM620.161 584.84L620.655 585.709L620.161 584.84ZM619.009 549.56V550.56H620.009V549.56H619.009ZM615.265 530.264L614.395 530.756L614.395 530.756L615.265 530.264ZM596.113 527.096L596.805 527.818L596.813 527.811L596.82 527.803L596.113 527.096ZM590.641 536.312L589.695 535.989L589.691 535.999L589.688 536.01L590.641 536.312ZM588.769 549.56H587.769V550.56H588.769V549.56ZM605.329 587.44C598.962 587.44 593.648 585.944 589.332 583.005L588.207 584.659C592.915 587.864 598.641 589.44 605.329 589.44V587.44ZM589.344 583.014C584.989 579.956 581.696 575.88 579.462 570.76L577.629 571.56C580.003 577 583.526 581.372 588.195 584.65L589.344 583.014ZM579.465 570.766C577.22 565.53 576.089 559.666 576.089 553.16H574.089C574.089 559.902 575.262 566.038 577.626 571.554L579.465 570.766ZM576.089 553.16C576.089 546.752 577.22 540.936 579.465 535.698L577.626 534.91C575.263 540.424 574.089 546.512 574.089 553.16H576.089ZM579.465 535.698C581.704 530.473 584.906 526.402 589.061 523.447L587.902 521.817C583.417 525.006 579.995 529.383 577.626 534.91L579.465 535.698ZM589.064 523.445C593.297 520.408 598.225 518.88 603.889 518.88V516.88C597.841 516.88 592.498 518.52 587.898 521.819L589.064 523.445ZM603.889 518.88C613.4 518.88 620.277 521.558 624.731 526.74L626.248 525.436C621.294 519.674 613.771 516.88 603.889 516.88V518.88ZM624.743 526.754C629.322 531.882 631.689 539.43 631.689 549.56H633.689C633.689 539.146 631.257 531.046 626.235 525.422L624.743 526.754ZM631.691 549.51L631.403 555.27L633.4 555.37L633.688 549.61L631.691 549.51ZM632.401 554.32H588.769V556.32H632.401V554.32ZM587.769 555.32C587.769 563.523 589.527 570.312 593.126 575.61L594.781 574.486C591.467 569.608 589.769 563.245 589.769 555.32H587.769ZM593.126 575.61C596.765 580.966 601.823 583.68 608.209 583.68V581.68C602.499 581.68 598.054 579.306 594.781 574.486L593.126 575.61ZM608.209 583.68C612.863 583.68 616.85 582.689 620.115 580.648L619.055 578.952C616.177 580.751 612.58 581.68 608.209 581.68V583.68ZM620.104 580.655C623.418 578.647 626.441 575.658 629.189 571.733L627.55 570.587C624.921 574.342 622.089 577.113 619.067 578.945L620.104 580.655ZM627.769 571.96L630.649 574.12L631.849 572.52L628.969 570.36L627.769 571.96ZM630.392 572.806C627.289 577.977 623.707 581.675 619.667 583.971L620.655 585.709C625.064 583.205 628.874 579.223 632.107 573.834L630.392 572.806ZM619.667 583.971C615.617 586.272 610.849 587.44 605.329 587.44V589.44C611.138 589.44 616.257 588.208 620.655 585.709L619.667 583.971ZM620.009 549.56C620.009 541.041 618.756 534.407 616.136 529.772L614.395 530.756C616.767 534.953 618.009 541.183 618.009 549.56H620.009ZM616.136 529.772C613.462 525.041 609.337 522.64 603.889 522.64V524.64C608.618 524.64 612.077 526.655 614.395 530.756L616.136 529.772ZM603.889 522.64C600.708 522.64 597.871 523.924 595.406 526.389L596.82 527.803C598.964 525.66 601.31 524.64 603.889 524.64V522.64ZM595.421 526.374C592.972 528.721 591.076 531.946 589.695 535.989L591.588 536.635C592.895 532.806 594.646 529.887 596.805 527.818L595.421 526.374ZM589.688 536.01C588.404 540.06 587.769 544.58 587.769 549.56H589.769C589.769 544.748 590.383 540.436 591.595 536.614L589.688 536.01ZM588.769 550.56H619.009V548.56H588.769V550.56ZM659.082 583.832L658.507 584.65L658.513 584.655L658.519 584.659L659.082 583.832ZM648.858 571.16L647.939 571.554L647.941 571.56L648.858 571.16ZM648.858 535.304L647.939 534.91L647.939 534.91L648.858 535.304ZM658.794 522.632L659.373 523.447L659.377 523.445L658.794 522.632ZM695.802 526.088L695.044 526.74L695.05 526.747L695.056 526.754L695.802 526.088ZM703.002 549.56L704.001 549.61L704.002 549.585V549.56H703.002ZM702.714 555.32V556.32H703.665L703.713 555.37L702.714 555.32ZM659.082 555.32V554.32H658.082V555.32H659.082ZM664.266 575.048L665.093 574.486L665.093 574.486L664.266 575.048ZM689.898 579.8L689.38 578.945L689.368 578.952L689.898 579.8ZM698.682 571.16L699.282 570.36L698.455 569.74L697.863 570.587L698.682 571.16ZM701.562 573.32L702.419 573.834L702.883 573.061L702.162 572.52L701.562 573.32ZM690.474 584.84L690.968 585.709L690.474 584.84ZM689.322 549.56V550.56H690.322V549.56H689.322ZM685.578 530.264L684.707 530.756L684.707 530.756L685.578 530.264ZM666.426 527.096L667.118 527.818L667.125 527.811L667.133 527.803L666.426 527.096ZM660.954 536.312L660.008 535.989L660.004 535.999L660.001 536.01L660.954 536.312ZM659.082 549.56H658.082V550.56H659.082V549.56ZM675.642 587.44C669.275 587.44 663.96 585.944 659.645 583.005L658.519 584.659C663.227 587.864 668.953 589.44 675.642 589.44V587.44ZM659.657 583.014C655.302 579.956 652.008 575.88 649.774 570.76L647.941 571.56C650.315 577 653.838 581.372 658.507 584.65L659.657 583.014ZM649.777 570.766C647.533 565.53 646.402 559.666 646.402 553.16H644.402C644.402 559.902 645.575 566.038 647.939 571.554L649.777 570.766ZM646.402 553.16C646.402 546.752 647.532 540.936 649.777 535.698L647.939 534.91C645.576 540.424 644.402 546.512 644.402 553.16H646.402ZM649.777 535.698C652.016 530.473 655.218 526.402 659.373 523.447L658.214 521.817C653.729 525.006 650.307 529.383 647.939 534.91L649.777 535.698ZM659.377 523.445C663.609 520.408 668.538 518.88 674.202 518.88V516.88C668.154 516.88 662.81 518.52 658.211 521.819L659.377 523.445ZM674.202 518.88C683.712 518.88 690.589 521.558 695.044 526.74L696.56 525.436C691.607 519.674 684.084 516.88 674.202 516.88V518.88ZM695.056 526.754C699.634 531.882 702.002 539.43 702.002 549.56H704.002C704.002 539.146 701.569 531.046 696.548 525.422L695.056 526.754ZM702.003 549.51L701.715 555.27L703.713 555.37L704.001 549.61L702.003 549.51ZM702.714 554.32H659.082V556.32H702.714V554.32ZM658.082 555.32C658.082 563.523 659.84 570.312 663.439 575.61L665.093 574.486C661.78 569.608 660.082 563.245 660.082 555.32H658.082ZM663.439 575.61C667.077 580.966 672.136 583.68 678.522 583.68V581.68C672.812 581.68 668.367 579.306 665.093 574.486L663.439 575.61ZM678.522 583.68C683.175 583.68 687.162 582.689 690.428 580.648L689.368 578.952C686.49 580.751 682.892 581.68 678.522 581.68V583.68ZM690.416 580.655C693.73 578.647 696.754 575.658 699.501 571.733L697.863 570.587C695.234 574.342 692.402 577.113 689.38 578.945L690.416 580.655ZM698.082 571.96L700.962 574.12L702.162 572.52L699.282 570.36L698.082 571.96ZM700.704 572.806C697.602 577.977 694.019 581.675 689.98 583.971L690.968 585.709C695.377 583.205 699.186 579.223 702.419 573.834L700.704 572.806ZM689.98 583.971C685.93 586.272 681.162 587.44 675.642 587.44V589.44C681.45 589.44 686.57 588.208 690.968 585.709L689.98 583.971ZM690.322 549.56C690.322 541.041 689.068 534.407 686.448 529.772L684.707 530.756C687.08 534.953 688.322 541.183 688.322 549.56H690.322ZM686.448 529.772C683.774 525.041 679.649 522.64 674.202 522.64V524.64C678.931 524.64 682.389 526.655 684.707 530.756L686.448 529.772ZM674.202 522.64C671.021 522.64 668.183 523.924 665.719 526.389L667.133 527.803C669.276 525.66 671.623 524.64 674.202 524.64V522.64ZM665.734 526.374C663.285 528.721 661.388 531.946 660.008 535.989L661.9 536.635C663.208 532.806 664.959 529.887 667.118 527.818L665.734 526.374ZM660.001 536.01C658.717 540.06 658.082 544.58 658.082 549.56H660.082C660.082 544.748 660.695 540.436 661.907 536.614L660.001 536.01ZM659.082 550.56H689.322V548.56H659.082V550.56ZM729.826 583.832L729.268 584.661L729.277 584.668L729.287 584.674L729.826 583.832ZM719.17 571.16L718.251 571.554L718.256 571.564L718.26 571.574L719.17 571.16ZM719.17 535.304L718.257 534.896L718.254 534.904L719.17 535.304ZM729.826 522.632L730.373 523.469L730.377 523.467L729.826 522.632ZM771.298 528.968L770.311 529.126L770.312 529.132L771.298 528.968ZM771.874 541.64V542.64H772.874V541.64H771.874ZM768.994 541.64L767.996 541.704L768.057 542.64H768.994V541.64ZM763.378 528.248L762.704 528.986L762.709 528.991L762.715 528.997L763.378 528.248ZM734.578 531.848L733.74 531.303L733.733 531.314L734.578 531.848ZM734.578 574.472L733.733 575.006L733.74 575.016L734.578 574.472ZM762.37 579.944L762.869 580.811L762.879 580.805L762.889 580.799L762.37 579.944ZM771.154 571.16L771.754 570.36L770.918 569.733L770.329 570.596L771.154 571.16ZM774.034 573.32L774.896 573.828L775.35 573.057L774.634 572.52L774.034 573.32ZM762.802 584.984L763.273 585.866L763.281 585.862L763.288 585.858L762.802 584.984ZM747.394 587.44C740.632 587.44 734.973 585.939 730.365 582.99L729.287 584.674C734.28 587.869 740.332 589.44 747.394 589.44V587.44ZM730.385 583.003C725.838 579.94 722.406 575.862 720.081 570.746L718.26 571.574C720.735 577.018 724.407 581.388 729.268 584.661L730.385 583.003ZM720.09 570.766C717.845 565.53 716.714 559.666 716.714 553.16H714.714C714.714 559.902 715.887 566.038 718.251 571.554L720.09 570.766ZM716.714 553.16C716.714 546.653 717.846 540.84 720.087 535.704L718.254 534.904C715.887 540.328 714.714 546.419 714.714 553.16H716.714ZM720.084 535.712C722.409 530.502 725.838 526.431 730.373 523.469L729.28 521.795C724.407 524.977 720.732 529.354 718.257 534.896L720.084 535.712ZM730.377 523.467C734.983 520.427 740.638 518.88 747.394 518.88V516.88C740.327 516.88 734.269 518.501 729.276 521.797L730.377 523.467ZM747.394 518.88C752.629 518.88 756.924 519.297 760.3 520.112C763.685 520.929 766.067 522.127 767.567 523.627L768.981 522.213C767.121 520.353 764.344 519.031 760.769 518.168C757.185 517.303 752.72 516.88 747.394 516.88V518.88ZM767.567 523.627C769.042 525.102 769.958 526.922 770.311 529.126L772.286 528.81C771.87 526.214 770.771 524.002 768.981 522.213L767.567 523.627ZM770.312 529.132C770.681 531.344 770.874 535.49 770.874 541.64H772.874C772.874 535.502 772.684 531.2 772.285 528.804L770.312 529.132ZM771.874 540.64H768.994V542.64H771.874V540.64ZM769.992 541.576C769.597 535.45 767.657 530.702 764.041 527.499L762.715 528.997C765.82 531.746 767.624 535.926 767.996 541.704L769.992 541.576ZM764.053 527.51C760.476 524.24 755.852 522.64 750.274 522.64V524.64C755.449 524.64 759.56 526.112 762.704 528.986L764.053 527.51ZM750.274 522.64C743.048 522.64 737.489 525.528 733.74 531.304L735.417 532.392C738.772 527.224 743.677 524.64 750.274 524.64V522.64ZM733.733 531.314C730.146 536.993 728.394 544.299 728.394 553.16H730.394C730.394 544.549 732.098 537.647 735.424 532.382L733.733 531.314ZM728.394 553.16C728.394 562.021 730.146 569.327 733.733 575.006L735.424 573.938C732.098 568.673 730.394 561.771 730.394 553.16H728.394ZM733.74 575.016C737.489 580.792 743.048 583.68 750.274 583.68V581.68C743.677 581.68 738.772 579.096 735.417 573.928L733.74 575.016ZM750.274 583.68C755.288 583.68 759.507 582.747 762.869 580.811L761.871 579.077C758.898 580.789 755.053 581.68 750.274 581.68V583.68ZM762.889 580.799C766.208 578.787 769.234 575.745 771.98 571.724L770.329 570.596C767.699 574.447 764.868 577.261 761.852 579.089L762.889 580.799ZM770.554 571.96L773.434 574.12L774.634 572.52L771.754 570.36L770.554 571.96ZM773.173 572.812C770.072 578.075 766.445 581.816 762.317 584.11L763.288 585.858C767.8 583.352 771.661 579.317 774.896 573.828L773.173 572.812ZM762.332 584.102C758.185 586.313 753.217 587.44 747.394 587.44V589.44C753.475 589.44 758.78 588.263 763.273 585.866L762.332 584.102ZM799.004 583.832L798.429 584.65L798.435 584.655L798.441 584.659L799.004 583.832ZM788.78 571.16L787.861 571.554L787.863 571.56L788.78 571.16ZM788.78 535.304L787.861 534.91L787.861 534.91L788.78 535.304ZM798.716 522.632L799.295 523.447L799.299 523.445L798.716 522.632ZM835.724 526.088L834.965 526.74L834.972 526.747L834.978 526.754L835.724 526.088ZM842.924 549.56L843.923 549.61L843.924 549.585V549.56H842.924ZM842.636 555.32V556.32H843.587L843.635 555.37L842.636 555.32ZM799.004 555.32V554.32H798.004V555.32H799.004ZM804.188 575.048L805.015 574.486L805.015 574.486L804.188 575.048ZM829.82 579.8L829.301 578.945L829.29 578.952L829.82 579.8ZM838.604 571.16L839.204 570.36L838.377 569.74L837.785 570.587L838.604 571.16ZM841.484 573.32L842.341 573.834L842.805 573.061L842.084 572.52L841.484 573.32ZM830.396 584.84L830.89 585.709L830.396 584.84ZM829.244 549.56V550.56H830.244V549.56H829.244ZM825.5 530.264L824.629 530.756L824.629 530.756L825.5 530.264ZM806.348 527.096L807.04 527.818L807.047 527.811L807.055 527.803L806.348 527.096ZM800.876 536.312L799.929 535.989L799.926 535.999L799.923 536.01L800.876 536.312ZM799.004 549.56H798.004V550.56H799.004V549.56ZM815.564 587.44C809.196 587.44 803.882 585.944 799.567 583.005L798.441 584.659C803.149 587.864 808.875 589.44 815.564 589.44V587.44ZM799.578 583.014C795.224 579.956 791.93 575.88 789.696 570.76L787.863 571.56C790.237 577 793.76 581.372 798.429 584.65L799.578 583.014ZM789.699 570.766C787.455 565.53 786.324 559.666 786.324 553.16H784.324C784.324 559.902 785.497 566.038 787.861 571.554L789.699 570.766ZM786.324 553.16C786.324 546.752 787.454 540.936 789.699 535.698L787.861 534.91C785.497 540.424 784.324 546.512 784.324 553.16H786.324ZM789.699 535.698C791.938 530.473 795.14 526.402 799.295 523.447L798.136 521.817C793.651 525.006 790.229 529.383 787.861 534.91L789.699 535.698ZM799.299 523.445C803.531 520.408 808.46 518.88 814.124 518.88V516.88C808.076 516.88 802.732 518.52 798.133 521.819L799.299 523.445ZM814.124 518.88C823.634 518.88 830.511 521.558 834.965 526.74L836.482 525.436C831.529 519.674 824.005 516.88 814.124 516.88V518.88ZM834.978 526.754C839.556 531.882 841.924 539.43 841.924 549.56H843.924C843.924 539.146 841.491 531.046 836.47 525.422L834.978 526.754ZM841.925 549.51L841.637 555.27L843.635 555.37L843.923 549.61L841.925 549.51ZM842.636 554.32H799.004V556.32H842.636V554.32ZM798.004 555.32C798.004 563.523 799.762 570.312 803.361 575.61L805.015 574.486C801.702 569.608 800.004 563.245 800.004 555.32H798.004ZM803.361 575.61C806.999 580.966 812.058 583.68 818.444 583.68V581.68C812.734 581.68 808.289 579.306 805.015 574.486L803.361 575.61ZM818.444 583.68C823.097 583.68 827.084 582.689 830.35 580.648L829.29 578.952C826.412 580.751 822.814 581.68 818.444 581.68V583.68ZM830.338 580.655C833.652 578.647 836.676 575.658 839.423 571.733L837.785 570.587C835.156 574.342 832.324 577.113 829.301 578.945L830.338 580.655ZM838.004 571.96L840.884 574.12L842.084 572.52L839.204 570.36L838.004 571.96ZM840.626 572.806C837.524 577.977 833.941 581.675 829.902 583.971L830.89 585.709C835.298 583.205 839.108 579.223 842.341 573.834L840.626 572.806ZM829.902 583.971C825.852 586.272 821.084 587.44 815.564 587.44V589.44C821.372 589.44 826.492 588.208 830.89 585.709L829.902 583.971ZM830.244 549.56C830.244 541.041 828.99 534.407 826.37 529.772L824.629 530.756C827.001 534.953 828.244 541.183 828.244 549.56H830.244ZM826.37 529.772C823.696 525.041 819.571 522.64 814.124 522.64V524.64C818.853 524.64 822.311 526.655 824.629 530.756L826.37 529.772ZM814.124 522.64C810.943 522.64 808.105 523.924 805.641 526.389L807.055 527.803C809.198 525.66 811.545 524.64 814.124 524.64V522.64ZM805.656 526.374C803.207 528.721 801.31 531.946 799.929 535.989L801.822 536.635C803.13 532.806 804.881 529.887 807.04 527.818L805.656 526.374ZM799.923 536.01C798.638 540.06 798.004 544.58 798.004 549.56H800.004C800.004 544.748 800.617 540.436 801.829 536.614L799.923 536.01ZM799.004 550.56H829.244V548.56H799.004V550.56Z" fill="#0F5C98"/>
<path d="M318.904 287.72C306.904 287.72 300.904 293.24 300.904 304.28H298.024V293.48C298.024 285.8 302.104 281.96 310.264 281.96H377.224V287.72H344.824V377H331.864V287.72H318.904ZM383.301 326.6C383.301 321.704 382.629 318.104 381.285 315.8C379.941 313.4 377.253 312.2 373.221 312.2H371.781V309.32H383.301C386.949 309.32 389.685 309.848 391.509 310.904C393.429 311.864 394.773 313.496 395.541 315.8H396.261C397.989 313.592 400.293 311.72 403.173 310.184C406.149 308.648 409.605 307.88 413.541 307.88C417.381 307.88 420.261 308.6 422.181 310.04C423.813 311.288 425.493 313.448 427.221 316.52L421.461 320.84C420.405 319.4 418.869 318.344 416.853 317.672C414.837 316.904 412.533 316.52 409.941 316.52C407.061 316.52 404.421 317.192 402.021 318.536C399.621 319.784 397.701 321.512 396.261 323.72V377H383.301V326.6ZM455.512 378.44C452.44 378.44 449.32 377.816 446.152 376.568C442.984 375.224 440.248 373.064 437.944 370.088C435.736 367.112 434.632 363.176 434.632 358.28C434.632 350.984 437.992 345.8 444.712 342.728C451.528 339.656 460.408 338.12 471.352 338.12H475.672C475.672 328.712 474.376 322.28 471.784 318.824C469.192 315.368 465.448 313.64 460.552 313.64C456.232 313.64 452.776 314.552 450.184 316.376C447.592 318.2 445.768 321.368 444.712 325.88H438.232C438.232 322.616 438.424 320.072 438.808 318.248C439.192 316.328 440.2 314.552 441.832 312.92C443.56 311.192 446.392 309.944 450.328 309.176C454.36 308.312 458.728 307.88 463.432 307.88C471.208 307.88 477.352 309.992 481.864 314.216C486.376 318.344 488.632 326.312 488.632 338.12V377H481.432L476.392 370.52H475.672C473.944 372.728 471.4 374.6 468.04 376.136C464.68 377.672 460.504 378.44 455.512 378.44ZM461.992 371.96C465.16 371.96 467.8 371.192 469.912 369.656C472.024 368.12 473.944 366.008 475.672 363.32V343.88H471.352C464.248 343.88 458.632 345.224 454.504 347.912C450.376 350.504 448.312 353.96 448.312 358.28C448.312 362.696 449.608 366.104 452.2 368.504C454.888 370.808 458.152 371.96 461.992 371.96ZM511.194 325.88C508.89 320.504 506.682 316.76 504.57 314.648C502.458 312.44 499.674 311.24 496.217 311.048V308.168C496.697 308.168 497.37 308.12 498.234 308.024C499.194 307.928 500.154 307.88 501.114 307.88C506.202 307.88 510.81 309.176 514.938 311.768C519.066 314.264 522.618 318.968 525.594 325.88L538.554 356.84L558.714 309.32H565.914L536.394 378.44H533.514L511.194 325.88ZM604.111 378.44C597.583 378.44 592.063 376.904 587.551 373.832C583.039 370.664 579.631 366.44 577.327 361.16C575.023 355.784 573.871 349.784 573.871 343.16C573.871 336.632 575.023 330.68 577.327 325.304C579.631 319.928 582.943 315.704 587.263 312.632C591.679 309.464 596.815 307.88 602.671 307.88C612.367 307.88 619.567 310.616 624.271 316.088C629.071 321.464 631.471 329.288 631.471 339.56L631.183 345.32H587.551C587.551 353.384 589.279 359.96 592.735 365.048C596.191 370.136 600.943 372.68 606.991 372.68C611.503 372.68 615.295 371.72 618.367 369.8C621.535 367.88 624.463 365 627.151 361.16L630.031 363.32C626.863 368.6 623.167 372.44 618.943 374.84C614.719 377.24 609.775 378.44 604.111 378.44ZM617.791 339.56C617.791 331.112 616.543 324.68 614.047 320.264C611.551 315.848 607.759 313.64 602.671 313.64C599.791 313.64 597.199 314.792 594.895 317.096C592.591 319.304 590.767 322.376 589.423 326.312C588.175 330.248 587.551 334.664 587.551 339.56H617.791ZM648.647 299.24C648.647 294.344 647.975 290.744 646.631 288.44C645.287 286.04 642.599 284.84 638.567 284.84H635.687V281.96H648.647C652.199 281.96 654.839 282.44 656.567 283.4C658.391 284.264 659.687 285.896 660.455 288.296C661.223 290.696 661.607 294.344 661.607 299.24V377H648.647V299.24Z" fill="white"/>
<path d="M300.904 304.28V305.28H301.904V304.28H300.904ZM298.024 304.28H297.024V305.28H298.024V304.28ZM377.224 281.96H378.224V280.96H377.224V281.96ZM377.224 287.72V288.72H378.224V287.72H377.224ZM344.824 287.72V286.72H343.824V287.72H344.824ZM344.824 377V378H345.824V377H344.824ZM331.864 377H330.864V378H331.864V377ZM331.864 287.72H332.864V286.72H331.864V287.72ZM318.904 286.72C312.77 286.72 307.982 288.129 304.727 291.124C301.456 294.133 299.904 298.583 299.904 304.28H301.904C301.904 298.937 303.352 295.107 306.081 292.596C308.826 290.071 313.038 288.72 318.904 288.72V286.72ZM300.904 303.28H298.024V305.28H300.904V303.28ZM299.024 304.28V293.48H297.024V304.28H299.024ZM299.024 293.48C299.024 289.81 299.996 287.237 301.769 285.568C303.554 283.888 306.324 282.96 310.264 282.96V280.96C306.044 280.96 302.694 281.952 300.399 284.112C298.092 286.283 297.024 289.47 297.024 293.48H299.024ZM310.264 282.96H377.224V280.96H310.264V282.96ZM376.224 281.96V287.72H378.224V281.96H376.224ZM377.224 286.72H344.824V288.72H377.224V286.72ZM343.824 287.72V377H345.824V287.72H343.824ZM344.824 376H331.864V378H344.824V376ZM332.864 377V287.72H330.864V377H332.864ZM331.864 286.72H318.904V288.72H331.864V286.72ZM381.285 315.8L380.413 316.289L380.417 316.296L380.421 316.304L381.285 315.8ZM371.781 312.2H370.781V313.2H371.781V312.2ZM371.781 309.32V308.32H370.781V309.32H371.781ZM391.509 310.904L391.008 311.769L391.035 311.785L391.062 311.798L391.509 310.904ZM395.541 315.8L394.593 316.116L394.82 316.8H395.541V315.8ZM396.261 315.8V316.8H396.748L397.049 316.416L396.261 315.8ZM403.173 310.184L402.715 309.295L402.703 309.302L403.173 310.184ZM422.181 310.04L422.789 309.246L422.781 309.24L422.181 310.04ZM427.221 316.52L427.821 317.32L428.523 316.794L428.093 316.03L427.221 316.52ZM421.461 320.84L420.655 321.431L421.253 322.246L422.061 321.64L421.461 320.84ZM416.853 317.672L416.497 318.606L416.517 318.614L416.537 318.621L416.853 317.672ZM402.021 318.536L402.483 319.423L402.496 319.416L402.51 319.409L402.021 318.536ZM396.261 323.72L395.424 323.174L395.261 323.423V323.72H396.261ZM396.261 377V378H397.261V377H396.261ZM383.301 377H382.301V378H383.301V377ZM384.301 326.6C384.301 321.653 383.629 317.834 382.149 315.296L380.421 316.304C381.629 318.374 382.301 321.755 382.301 326.6H384.301ZM382.158 315.311C380.562 312.461 377.429 311.2 373.221 311.2V313.2C377.077 313.2 379.321 314.339 380.413 316.289L382.158 315.311ZM373.221 311.2H371.781V313.2H373.221V311.2ZM372.781 312.2V309.32H370.781V312.2H372.781ZM371.781 310.32H383.301V308.32H371.781V310.32ZM383.301 310.32C386.886 310.32 389.411 310.845 391.008 311.769L392.01 310.039C389.96 308.851 387.013 308.32 383.301 308.32V310.32ZM391.062 311.798C392.713 312.624 393.896 314.028 394.593 316.116L396.49 315.484C395.65 312.964 394.146 311.104 391.956 310.01L391.062 311.798ZM395.541 316.8H396.261V314.8H395.541V316.8ZM397.049 316.416C398.678 314.335 400.867 312.547 403.644 311.066L402.703 309.302C399.72 310.893 397.301 312.849 395.474 315.184L397.049 316.416ZM403.632 311.073C406.443 309.622 409.737 308.88 413.541 308.88V306.88C409.474 306.88 405.855 307.674 402.715 309.295L403.632 311.073ZM413.541 308.88C417.285 308.88 419.911 309.587 421.581 310.84L422.781 309.24C420.612 307.613 417.477 306.88 413.541 306.88V308.88ZM421.574 310.834C423.047 311.961 424.647 313.984 426.35 317.01L428.093 316.03C426.339 312.912 424.579 310.615 422.789 309.246L421.574 310.834ZM426.621 315.72L420.861 320.04L422.061 321.64L427.821 317.32L426.621 315.72ZM422.268 320.249C421.067 318.612 419.344 317.448 417.169 316.723L416.537 318.621C418.395 319.24 419.743 320.188 420.655 321.431L422.268 320.249ZM417.209 316.738C415.059 315.918 412.631 315.52 409.941 315.52V317.52C412.435 317.52 414.615 317.89 416.497 318.606L417.209 316.738ZM409.941 315.52C406.899 315.52 404.089 316.232 401.533 317.663L402.51 319.409C404.753 318.152 407.224 317.52 409.941 317.52V315.52ZM401.56 317.649C399.011 318.974 396.96 320.818 395.424 323.174L397.099 324.266C398.442 322.206 400.231 320.594 402.483 319.423L401.56 317.649ZM395.261 323.72V377H397.261V323.72H395.261ZM396.261 376H383.301V378H396.261V376ZM384.301 377V326.6H382.301V377H384.301ZM446.152 376.568L445.761 377.489L445.773 377.494L445.785 377.498L446.152 376.568ZM437.944 370.088L437.141 370.684L437.147 370.692L437.153 370.7L437.944 370.088ZM444.712 342.728L444.301 341.816L444.296 341.819L444.712 342.728ZM475.672 338.12V339.12H476.672V338.12H475.672ZM471.784 318.824L472.584 318.224L472.584 318.224L471.784 318.824ZM450.184 316.376L449.608 315.558L449.608 315.558L450.184 316.376ZM444.712 325.88V326.88H445.505L445.685 326.108L444.712 325.88ZM438.232 325.88H437.232V326.88H438.232V325.88ZM438.808 318.248L439.786 318.454L439.788 318.444L438.808 318.248ZM441.832 312.92L442.539 313.627L442.539 313.627L441.832 312.92ZM450.328 309.176L450.519 310.157L450.528 310.156L450.537 310.154L450.328 309.176ZM481.864 314.216L481.18 314.946L481.189 314.954L481.864 314.216ZM488.632 377V378H489.632V377H488.632ZM481.432 377L480.642 377.614L480.943 378H481.432V377ZM476.392 370.52L477.181 369.906L476.881 369.52H476.392V370.52ZM475.672 370.52V369.52H475.184L474.884 369.904L475.672 370.52ZM468.04 376.136L468.455 377.045L468.455 377.045L468.04 376.136ZM469.912 369.656L469.323 368.847L469.323 368.847L469.912 369.656ZM475.672 363.32L476.513 363.861L476.672 363.614V363.32H475.672ZM475.672 343.88H476.672V342.88H475.672V343.88ZM454.504 347.912L455.035 348.759L455.042 348.755L455.049 348.75L454.504 347.912ZM452.2 368.504L451.52 369.238L451.534 369.251L451.549 369.263L452.2 368.504ZM455.512 377.44C452.578 377.44 449.582 376.845 446.518 375.638L445.785 377.498C449.057 378.787 452.301 379.44 455.512 379.44V377.44ZM446.542 375.647C443.546 374.376 440.944 372.329 438.734 369.476L437.153 370.7C439.552 373.799 442.421 376.072 445.761 377.489L446.542 375.647ZM438.747 369.492C436.702 366.736 435.632 363.03 435.632 358.28H433.632C433.632 363.322 434.769 367.488 437.141 370.684L438.747 369.492ZM435.632 358.28C435.632 354.789 436.434 351.866 437.991 349.464C439.549 347.06 441.906 345.11 445.127 343.637L444.296 341.819C440.797 343.418 438.115 345.595 436.312 348.376C434.51 351.158 433.632 354.475 433.632 358.28H435.632ZM445.123 343.64C451.764 340.646 460.489 339.12 471.352 339.12V337.12C460.326 337.12 451.291 338.666 444.301 341.816L445.123 343.64ZM471.352 339.12H475.672V337.12H471.352V339.12ZM476.672 338.12C476.672 333.376 476.345 329.345 475.68 326.042C475.016 322.749 474.003 320.117 472.584 318.224L470.984 319.424C472.156 320.987 473.087 323.299 473.719 326.438C474.35 329.567 474.672 333.456 474.672 338.12H476.672ZM472.584 318.224C469.776 314.48 465.714 312.64 460.552 312.64V314.64C465.181 314.64 468.608 316.256 470.984 319.424L472.584 318.224ZM460.552 312.64C456.099 312.64 452.42 313.58 449.608 315.558L450.759 317.194C453.131 315.524 456.364 314.64 460.552 314.64V312.64ZM449.608 315.558C446.74 317.576 444.824 321.01 443.738 325.652L445.685 326.108C446.711 321.726 448.443 318.824 450.759 317.194L449.608 315.558ZM444.712 324.88H438.232V326.88H444.712V324.88ZM439.232 325.88C439.232 322.642 439.423 320.178 439.786 318.454L437.829 318.042C437.424 319.966 437.232 322.59 437.232 325.88H439.232ZM439.788 318.444C440.127 316.75 441.021 315.145 442.539 313.627L441.125 312.213C439.378 313.959 438.256 315.906 437.827 318.052L439.788 318.444ZM442.539 313.627C444.062 312.104 446.665 310.909 450.519 310.157L450.136 308.195C446.118 308.978 443.057 310.28 441.125 312.213L442.539 313.627ZM450.537 310.154C454.491 309.306 458.788 308.88 463.432 308.88V306.88C458.667 306.88 454.228 307.318 450.118 308.198L450.537 310.154ZM463.432 308.88C471.022 308.88 476.898 310.937 481.18 314.946L482.547 313.486C477.805 309.047 471.393 306.88 463.432 306.88V308.88ZM481.189 314.954C485.368 318.778 487.632 326.359 487.632 338.12H489.632C489.632 326.265 487.383 317.91 482.539 313.478L481.189 314.954ZM487.632 338.12V377H489.632V338.12H487.632ZM488.632 376H481.432V378H488.632V376ZM482.221 376.386L477.181 369.906L475.602 371.134L480.642 377.614L482.221 376.386ZM476.392 369.52H475.672V371.52H476.392V369.52ZM474.884 369.904C473.281 371.952 470.883 373.737 467.624 375.227L468.455 377.045C471.916 375.463 474.606 373.504 476.459 371.136L474.884 369.904ZM467.624 375.227C464.432 376.686 460.408 377.44 455.512 377.44V379.44C460.599 379.44 464.928 378.658 468.455 377.045L467.624 375.227ZM461.992 372.96C465.325 372.96 468.183 372.15 470.5 370.465L469.323 368.847C467.416 370.234 464.994 370.96 461.992 370.96V372.96ZM470.5 370.465C472.732 368.842 474.732 366.63 476.513 363.861L474.83 362.779C473.155 365.386 471.316 367.398 469.323 368.847L470.5 370.465ZM476.672 363.32V343.88H474.672V363.32H476.672ZM475.672 342.88H471.352V344.88H475.672V342.88ZM471.352 342.88C464.135 342.88 458.305 344.243 453.958 347.074L455.049 348.75C458.958 346.205 464.36 344.88 471.352 344.88V342.88ZM453.972 347.065C449.597 349.812 447.312 353.567 447.312 358.28H449.312C449.312 354.353 451.154 351.196 455.035 348.759L453.972 347.065ZM447.312 358.28C447.312 362.9 448.675 366.603 451.52 369.238L452.879 367.77C450.54 365.605 449.312 362.492 449.312 358.28H447.312ZM451.549 369.263C454.434 371.736 457.935 372.96 461.992 372.96V370.96C458.369 370.96 455.341 369.88 452.85 367.745L451.549 369.263ZM511.194 325.88L512.114 325.489L512.113 325.486L511.194 325.88ZM504.57 314.648L503.847 315.339L503.855 315.347L503.862 315.355L504.57 314.648ZM496.217 311.048H495.217V311.994L496.162 312.046L496.217 311.048ZM496.217 308.168V307.168H495.217V308.168H496.217ZM498.234 308.024L498.134 307.029L498.123 307.03L498.234 308.024ZM514.938 311.768L514.406 312.615L514.413 312.619L514.42 312.624L514.938 311.768ZM525.594 325.88L526.516 325.494L526.512 325.485L525.594 325.88ZM538.554 356.84L537.631 357.226L538.547 359.415L539.474 357.231L538.554 356.84ZM558.714 309.32V308.32H558.051L557.793 308.929L558.714 309.32ZM565.914 309.32L566.833 309.713L567.428 308.32H565.914V309.32ZM536.394 378.44V379.44H537.054L537.313 378.833L536.394 378.44ZM533.514 378.44L532.593 378.831L532.852 379.44H533.514V378.44ZM512.113 325.486C509.797 320.083 507.529 316.193 505.277 313.941L503.862 315.355C505.834 317.327 507.982 320.925 510.274 326.274L512.113 325.486ZM505.292 313.957C502.981 311.541 499.946 310.254 496.273 310.05L496.162 312.046C499.401 312.226 501.934 313.339 503.847 315.339L505.292 313.957ZM497.217 311.048V308.168H495.217V311.048H497.217ZM496.217 309.168C496.753 309.168 497.468 309.115 498.344 309.018L498.123 307.03C497.271 307.125 496.642 307.168 496.217 307.168V309.168ZM498.333 309.019C499.26 308.926 500.187 308.88 501.114 308.88V306.88C500.12 306.88 499.127 306.93 498.134 307.029L498.333 309.019ZM501.114 308.88C506.022 308.88 510.444 310.127 514.406 312.615L515.469 310.921C511.175 308.225 506.381 306.88 501.114 306.88V308.88ZM514.42 312.624C518.295 314.967 521.738 319.455 524.675 326.275L526.512 325.485C523.497 318.481 519.836 313.561 515.455 310.912L514.42 312.624ZM524.671 326.266L537.631 357.226L539.476 356.454L526.516 325.494L524.671 326.266ZM539.474 357.231L559.634 309.711L557.793 308.929L537.633 356.449L539.474 357.231ZM558.714 310.32H565.914V308.32H558.714V310.32ZM564.994 308.927L535.474 378.047L537.313 378.833L566.833 309.713L564.994 308.927ZM536.394 377.44H533.514V379.44H536.394V377.44ZM534.434 378.049L512.114 325.489L510.273 326.271L532.593 378.831L534.434 378.049ZM587.551 373.832L586.976 374.65L586.982 374.655L586.988 374.659L587.551 373.832ZM577.327 361.16L576.407 361.554L576.41 361.56L577.327 361.16ZM577.327 325.304L576.407 324.91L576.407 324.91L577.327 325.304ZM587.263 312.632L587.842 313.447L587.846 313.445L587.263 312.632ZM624.271 316.088L623.512 316.74L623.518 316.747L623.525 316.754L624.271 316.088ZM631.471 339.56L632.469 339.61L632.471 339.585V339.56H631.471ZM631.183 345.32V346.32H632.134L632.181 345.37L631.183 345.32ZM587.551 345.32V344.32H586.551V345.32H587.551ZM592.735 365.048L593.562 364.486L593.562 364.486L592.735 365.048ZM618.367 369.8L617.848 368.945L617.837 368.952L618.367 369.8ZM627.151 361.16L627.751 360.36L626.924 359.74L626.331 360.587L627.151 361.16ZM630.031 363.32L630.888 363.834L631.352 363.061L630.631 362.52L630.031 363.32ZM618.943 374.84L619.437 375.709L618.943 374.84ZM617.791 339.56V340.56H618.791V339.56H617.791ZM614.047 320.264L613.176 320.756L613.176 320.756L614.047 320.264ZM594.895 317.096L595.587 317.818L595.594 317.811L595.602 317.803L594.895 317.096ZM589.423 326.312L588.476 325.989L588.473 325.999L588.469 326.01L589.423 326.312ZM587.551 339.56H586.551V340.56H587.551V339.56ZM604.111 377.44C597.743 377.44 592.429 375.944 588.113 373.005L586.988 374.659C591.696 377.864 597.422 379.44 604.111 379.44V377.44ZM588.125 373.014C583.77 369.956 580.477 365.88 578.243 360.76L576.41 361.56C578.784 367 582.307 371.372 586.976 374.65L588.125 373.014ZM578.246 360.766C576.002 355.53 574.871 349.666 574.871 343.16H572.871C572.871 349.902 574.044 356.038 576.407 361.554L578.246 360.766ZM574.871 343.16C574.871 336.752 576.001 330.936 578.246 325.698L576.407 324.91C574.044 330.424 572.871 336.512 572.871 343.16H574.871ZM578.246 325.698C580.485 320.473 583.687 316.402 587.842 313.447L586.683 311.817C582.198 315.006 578.776 319.383 576.407 324.91L578.246 325.698ZM587.846 313.445C592.078 310.408 597.007 308.88 602.671 308.88V306.88C596.623 306.88 591.279 308.52 586.68 311.819L587.846 313.445ZM602.671 308.88C612.181 308.88 619.058 311.558 623.512 316.74L625.029 315.436C620.075 309.674 612.552 306.88 602.671 306.88V308.88ZM623.525 316.754C628.103 321.882 630.471 329.43 630.471 339.56H632.471C632.471 329.146 630.038 321.046 625.017 315.422L623.525 316.754ZM630.472 339.51L630.184 345.27L632.181 345.37L632.469 339.61L630.472 339.51ZM631.183 344.32H587.551V346.32H631.183V344.32ZM586.551 345.32C586.551 353.523 588.309 360.312 591.907 365.61L593.562 364.486C590.249 359.608 588.551 353.245 588.551 345.32H586.551ZM591.907 365.61C595.546 370.966 600.605 373.68 606.991 373.68V371.68C601.281 371.68 596.835 369.306 593.562 364.486L591.907 365.61ZM606.991 373.68C611.644 373.68 615.631 372.689 618.897 370.648L617.837 368.952C614.958 370.751 611.361 371.68 606.991 371.68V373.68ZM618.885 370.655C622.199 368.647 625.223 365.658 627.97 361.733L626.331 360.587C623.703 364.342 620.87 367.113 617.848 368.945L618.885 370.655ZM626.551 361.96L629.431 364.12L630.631 362.52L627.751 360.36L626.551 361.96ZM629.173 362.806C626.07 367.977 622.488 371.675 618.449 373.971L619.437 375.709C623.845 373.205 627.655 369.223 630.888 363.834L629.173 362.806ZM618.449 373.971C614.399 376.272 609.63 377.44 604.111 377.44V379.44C609.919 379.44 615.039 378.208 619.437 375.709L618.449 373.971ZM618.791 339.56C618.791 331.041 617.537 324.407 614.917 319.772L613.176 320.756C615.548 324.953 616.791 331.183 616.791 339.56H618.791ZM614.917 319.772C612.243 315.041 608.118 312.64 602.671 312.64V314.64C607.399 314.64 610.858 316.655 613.176 320.756L614.917 319.772ZM602.671 312.64C599.49 312.64 596.652 313.924 594.188 316.389L595.602 317.803C597.745 315.66 600.092 314.64 602.671 314.64V312.64ZM594.203 316.374C591.754 318.721 589.857 321.946 588.476 325.989L590.369 326.635C591.676 322.806 593.428 319.887 595.587 317.818L594.203 316.374ZM588.469 326.01C587.185 330.06 586.551 334.58 586.551 339.56H588.551C588.551 334.748 589.164 330.436 590.376 326.614L588.469 326.01ZM587.551 340.56H617.791V338.56H587.551V340.56ZM646.631 288.44L645.759 288.929L645.763 288.936L645.767 288.944L646.631 288.44ZM635.687 284.84H634.687V285.84H635.687V284.84ZM635.687 281.96V280.96H634.687V281.96H635.687ZM656.567 283.4L656.081 284.274L656.11 284.29L656.139 284.304L656.567 283.4ZM660.455 288.296L661.408 287.991L661.408 287.991L660.455 288.296ZM661.607 377V378H662.607V377H661.607ZM648.647 377H647.647V378H648.647V377ZM649.647 299.24C649.647 294.293 648.975 290.474 647.495 287.936L645.767 288.944C646.975 291.014 647.647 294.395 647.647 299.24H649.647ZM647.504 287.951C645.908 285.101 642.775 283.84 638.567 283.84V285.84C642.423 285.84 644.667 286.979 645.759 288.929L647.504 287.951ZM638.567 283.84H635.687V285.84H638.567V283.84ZM636.687 284.84V281.96H634.687V284.84H636.687ZM635.687 282.96H648.647V280.96H635.687V282.96ZM648.647 282.96C652.145 282.96 654.578 283.439 656.081 284.274L657.053 282.526C655.1 281.441 652.253 280.96 648.647 280.96V282.96ZM656.139 284.304C657.653 285.021 658.797 286.394 659.503 288.601L661.408 287.991C660.578 285.398 659.129 283.507 656.995 282.496L656.139 284.304ZM659.503 288.601C660.222 290.848 660.607 294.369 660.607 299.24H662.607C662.607 294.319 662.224 290.544 661.408 287.991L659.503 288.601ZM660.607 299.24V377H662.607V299.24H660.607ZM661.607 376H648.647V378H661.607V376ZM649.647 377V299.24H647.647V377H649.647Z" fill="#0F5C98"/>
<defs>
<linearGradient id="paint0_linear" x1="295" y1="1" x2="295.817" y2="1339.1" gradientUnits="userSpaceOnUse">
<stop stop-color="#005494"/>
<stop offset="1" stop-color="#005494" stop-opacity="0"/>
</linearGradient>
</defs>
</svg>
